<?xml version="1.0" encoding="utf-8"?>
<svg version="1.1" xmlns="http://www.w3.org/2000/svg" style="display: none;">

  <symbol id="facebook" viewBox="0 0 20 20">
    <path d="M10,1.0622C5.02935,1.0622,1,5.09166,1,10.0622c0,4.22078,2.90566,7.76234,6.82581,8.73495v-5.98469h-1.85603v-2.75026h1.85603v-1.1851c0-3.06326,1.38625-4.48314,4.39365-4.48314.57019,0,1.55413.11179,1.95645.22357v2.49318c-.21248-.02241-.5814-.03356-1.03975-.03356-1.47568,0-2.04587.55898-2.04587,2.01237v.97267h2.93972l-.50515,2.75026h-2.43457v6.18387c4.45627-.53833,7.90972-4.33268,7.90972-8.93414,0-4.97054-4.02957-9-9-9Z" fill="var(--iconPrimary, #222)"/>
  </symbol>

  <symbol id="x" viewBox="0 0 20 20">
    <path d="m11.48944,8.77491l5.82828-6.77491h-1.38112l-5.0607,5.88256L6.83395,2H2.17202l6.11224,8.89547-6.11224,7.10453h1.38119l5.34423-6.21218,4.26861,6.21218h4.66193l-6.33888-9.22509h.00034Zm-1.89174,2.19893l-.6193-.88579L4.05088,3.03974h2.12143l3.97657,5.68821.6193.88579,5.16908,7.3938h-2.12143l-4.21812-6.03336s0-.00034,0-.00034Z" fill="var(--iconPrimary, #222)" stroke-width="0"/>
  </symbol>

  <symbol id="linkedin" viewBox="0 0 20 20">
    <path d="M16.81566,2.00023H3.18091c-.65154,0-1.18091.51646-1.18091,1.15291v13.69223c0,.63714.52937,1.1544,1.18091,1.1544h13.63474c.65269,0,1.18434-.51726,1.18434-1.1544V3.15314c0-.63646-.53166-1.15291-1.18434-1.15291ZM6.74537,15.63394h-2.37314v-7.63554h2.37314v7.63554ZM5.55931,6.95463c-.76057,0-1.37623-.61657-1.37623-1.37611,0-.75897.61566-1.37554,1.37623-1.37554.75874,0,1.3752.61657,1.3752,1.37554,0,.75954-.61646,1.37611-1.3752,1.37611ZM15.63383,15.63394h-2.37143v-3.71326c0-.88537-.01623-2.02434-1.23314-2.02434-1.23474,0-1.42434.96457-1.42434,1.96034v3.77726h-2.37097v-7.63554h2.276v1.04331h.03177c.31691-.60023,1.09097-1.23314,2.24537-1.23314,2.40309,0,2.84674,1.5816,2.84674,3.63726v4.18812Z" fill="var(--iconPrimary, #222)" stroke-width="0"/>
  </symbol>

  <symbol id="pinterest" viewBox="0 0 20 20">
    <path d="M10.00114,1.24743c-4.83273-.0004-8.75075,3.91698-8.75114,8.74971-.00029,3.60243,2.20719,6.83691,5.56195,8.14955-.11548-.83354-.10524-1.67969.03037-2.5102.1597-.68585,1.02681-4.35023,1.02681-4.35023-.17865-.40955-.26816-.85241-.26258-1.29919,0-1.21591.70544-2.12514,1.58333-2.12514.60707-.00881,1.10634.47617,1.11516,1.08324.00072.0499-.00195.09979-.008.14932-.15786.99015-.4001,1.96499-.72406,2.91387-.17068.68243.24417,1.37402.92661,1.5447.12044.03012.24465.04248.36866.03667,1.55589,0,2.75123-1.64015,2.75123-4.0073.06118-1.907-1.43515-3.50253-3.34215-3.56372-.10448-.00335-.20906-.00196-.31342.00417-2.08947-.09038-3.85659,1.5302-3.94697,3.61966-.00256.05929-.00373.11863-.00351.17797.0011.71751.22879,1.41634.65057,1.99679.06313.06701.08622.16236.06075.25082-.06662.2763-.21359.87103-.24299.99252-.03821.1597-.12639.19596-.29393.11659-1.13926-.74559-1.80992-2.02904-1.77144-3.39004,0-2.76004,2.00561-5.29082,5.78071-5.29082,2.83252-.14048,5.24261,2.04184,5.3831,4.87436.0029.05844.0048.11693.0057.17543,0,3.01577-1.90176,5.44268-4.54129,5.44268-.79603.02799-1.55166-.35075-2.00561-1.00526,0,0-.43894,1.67151-.54476,2.08008-.26145.80882-.62703,1.58018-1.08756,2.29465,4.61682,1.43019,9.51889-1.15309,10.94908-5.76991,1.43019-4.61682-1.15309-9.51889-5.76991-10.94908-.83709-.25931-1.70837-.39142-2.58471-.39191Z" fill="var(--iconPrimary, #222)" stroke-width="0"/>
  </symbol>

  <symbol id="reddit" viewBox="0 0 20 20">
    <path d="M12.91667,10.91075c-.00047.50296-.40778.91098-.91075.91217-.50296,0-.91075-.40778-.91075-.91075s.40778-.91075.91075-.91075c.50249,0,.9098.40683.91075.90932ZM8.90483,10.91359c.00071-.50296-.40636-.91122-.90932-.91217-.50296-.00071-.91122.40636-.91217.90932.00047.50296.40778.91098.91075.91217.50249,0,.9098-.40683.91075-.90932ZM11.85211,12.97933c-.53287.3793-1.17849.56681-1.8317.5324-.65321.03584-1.2993-.15167-1.8317-.5324-.09328-.09328-.24424-.09328-.33752,0s-.09328.24448,0,.33752c.62188.46309,1.38428.69784,2.15902.66508.77521.03655,1.5388-.19843,2.15902-.66508.08687-.09257.09566-.23546.02041-.33752-.09352-.0921-.24377-.0921-.33752,0ZM18.75,10c0,4.83239-3.91737,8.75-8.75,8.75S1.25,14.83239,1.25,10,5.16737,1.25,10,1.25s8.75,3.91737,8.75,8.75ZM15.83333,10c-.00047-.70614-.57275-1.27865-1.27889-1.27889-.32945-.00356-.64657.12533-.88013.35794-1.00806-.68193-2.1913-1.05862-3.40824-1.08497l.58343-2.73224,1.89579.39876c.02231.50296.44766.89271.95062.87063.50296-.02231.89271-.4479.87063-.95086-.0216-.48706-.42274-.87111-.91051-.87111-.34631-.00285-.66199.19653-.80868.51032l-2.11819-.44908c-.05981-.01092-.12177,0-.17422.03038-.05079.03465-.08735.0864-.10206.14598l-.64467,3.04935c-1.23593.00783-2.44147.38476-3.46141,1.08283-.50534-.48943-1.31188-.47614-1.80132.02943-.23119.23878-.35984.55898-.35841.89152-.00071.50463.29646.96202.75765,1.16662-.02089.12841-.03109.25848-.03062.38856,0,1.96533,2.28221,3.55113,5.10417,3.55113s5.10417-1.58674,5.10417-3.55113c.00024-.12675-.00997-.25326-.03062-.37835.4498-.22027.73676-.67576.74151-1.17683Z" fill="var(--iconPrimary, #222)"/>
  </symbol>

  <symbol id="clipboard" viewBox="0 0 20 20">
    <path d="m5.31348,18.74805c-1.04102,0-2.08105-.39648-2.87305-1.18848-1.58398-1.58398-1.58398-4.16211,0-5.74707l3.90527-3.90527c1.58496-1.58398,4.16211-1.58301,5.74707,0,.2168.21777.40723.45703.56641.70996.2207.35059.11523.81348-.23535,1.03418-.35254.22168-.81348.11426-1.03418-.23535-.10059-.16016-.22168-.31152-.35938-.44922-.99902-.99902-2.625-.99805-3.62402.00098l-3.90527,3.90527c-.99902,1-.99902,2.62695,0,3.62598,1.00098,1.00098,2.62695.99707,3.62598,0l1.95215-1.95215c.29297-.29297.76758-.29297,1.06055,0s.29297.76758,0,1.06055l-1.95215,1.95215c-.79199.79199-1.83301,1.1875-2.87402,1.18848Zm8.34082-6.65527l3.90527-3.90527c1.58398-1.58496,1.58398-4.16309,0-5.74707s-4.16309-1.58398-5.74707,0l-1.95215,1.95215c-.29297.29297-.29297.76758,0,1.06055s.76758.29297,1.06055,0l1.95215-1.95215c.99902-.99805,2.625-1,3.62598,0,.99902.99902.99902,2.62598,0,3.62598l-3.90527,3.90527c-.99902.99902-2.625,1-3.62402.00098-.1377-.1377-.25879-.28906-.35938-.44922-.2207-.34961-.68164-.45703-1.03418-.23535-.35059.2207-.45605.68359-.23535,1.03418.15918.25293.34961.49219.56641.70996.79297.79199,1.83301,1.18848,2.87402,1.18848,1.04004,0,2.08105-.39648,2.87305-1.18848Z" fill="var(--iconPrimary, #222)"/>
  </symbol>

</svg>
