<?xml version="1.0" encoding="UTF-8"?>
<!-- Generator: Adobe Illustrator 25.0.1, SVG Export Plug-In . SVG Version: 6.00 Build 0)  -->
<svg version="1.1" id="Layer_1" xmlns="http://www.w3.org/2000/svg" xmlns:xlink="http://www.w3.org/1999/xlink" x="0px" y="0px" viewBox="0 0 56 54" style="enable-background:new 0 0 56 54;" xml:space="preserve">
<style type="text/css">
	.st0{fill:#1E3101;}
	.st1{fill:#99E83F;}
</style>
<g id="Layer_2_1_">
	<g id="Surfaces">
		<g id="_3D_Substance_Surface">
			<g id="Outline_no_shadow">
				<path class="st0" d="M9.914,0h36.172C51.561,0,56,4.439,56,9.914v34.172C56,49.561,51.561,54,46.086,54H9.914      C4.439,54,0,49.561,0,44.086V9.914C0,4.439,4.439,0,9.914,0z"/>
			</g>
		</g>
	</g>
	<g id="Live_Text">
		<g id="Ds_copy">
			<g>
				<path class="st1" d="M10.554,37.632V14.1c-0.014-0.148,0.094-0.28,0.242-0.295c0.006-0.001,0.011-0.001,0.017-0.001      c0.37-0.024,0.912-0.043,1.628-0.055c0.715-0.012,1.553-0.025,2.516-0.037c0.962-0.012,1.986-0.018,3.071-0.019      c2.54-0.09,5.065,0.43,7.363,1.517c1.847,0.915,3.375,2.366,4.384,4.163c1.001,1.87,1.504,3.966,1.462,6.086      c0.028,1.605-0.229,3.202-0.759,4.718c-0.463,1.297-1.166,2.496-2.072,3.533c-0.857,0.972-1.863,1.802-2.979,2.46      c-1.107,0.653-2.304,1.139-3.552,1.443c-1.222,0.304-2.477,0.459-3.737,0.462h-2.756c-0.975,0-1.881-0.006-2.72-0.019      s-1.468-0.031-1.887-0.055C10.628,38.002,10.554,37.879,10.554,37.632z M15.66,18.244v15.318c0.271,0,0.518,0.006,0.74,0.019      s0.449,0.025,0.685,0.037c0.234,0.013,0.499,0.019,0.795,0.019c1.119,0.015,2.232-0.161,3.293-0.518      c0.95-0.323,1.816-0.854,2.535-1.554c0.723-0.722,1.279-1.593,1.628-2.553c0.398-1.103,0.592-2.269,0.573-3.441      c0.023-1.105-0.166-2.203-0.555-3.238c-0.347-0.892-0.899-1.69-1.61-2.331c-0.726-0.642-1.585-1.116-2.516-1.387      c-1.039-0.305-2.117-0.455-3.2-0.444c-0.494,0-0.907,0.006-1.24,0.019C16.456,18.201,16.08,18.22,15.66,18.244L15.66,18.244z"/>
				<path class="st1" d="M45.778,24.423c-0.695-0.357-1.436-0.618-2.201-0.777c-0.844-0.194-1.706-0.293-2.572-0.296      c-0.468-0.013-0.935,0.043-1.387,0.167c-0.288,0.064-0.543,0.228-0.722,0.463c-0.121,0.188-0.185,0.406-0.185,0.629      c0.007,0.216,0.085,0.425,0.222,0.592c0.671,0.818,1.732,1.142,2.694,1.478c1.14,0.398,2.223,0.931,3.245,1.575      c0.753,0.475,1.376,1.13,1.812,1.906c0.368,0.734,0.552,1.547,0.537,2.368c0.022,1.084-0.288,2.149-0.889,3.052      c-0.642,0.917-1.535,1.63-2.571,2.053c-1.322,0.53-2.739,0.782-4.162,0.74c-1.05,0.011-2.098-0.089-3.127-0.296      c-0.775-0.147-1.528-0.396-2.238-0.74c-0.165-0.085-0.266-0.258-0.259-0.444v-3.996c-0.009-0.08,0.026-0.158,0.092-0.204      c0.065-0.037,0.146-0.029,0.204,0.019c0.846,0.521,1.77,0.902,2.738,1.128c1.002,0.234,2.036,0.429,3.07,0.365      c0.805-0.05,2.158-0.246,2.147-1.308c-0.043-0.511-0.37-0.822-0.795-1.067c-0.81-0.467-1.669-0.781-2.535-1.123      c-0.97-0.383-1.9-0.877-2.757-1.473c-0.723-0.503-1.319-1.168-1.739-1.942c-0.84-1.549-0.692-3.649,0.24-5.125      c0.581-0.92,1.417-1.653,2.405-2.109c1.275-0.582,2.669-0.861,4.07-0.814c0.954-0.008,1.906,0.06,2.849,0.204      c0.664,0.085,1.312,0.266,1.924,0.536c0.102,0.029,0.184,0.105,0.222,0.204c0.025,0.09,0.038,0.184,0.037,0.277v3.737      c0.005,0.089-0.037,0.173-0.111,0.222C45.957,24.473,45.857,24.473,45.778,24.423z"/>
			</g>
		</g>
	</g>
</g>
</svg>