<svg xmlns="http://www.w3.org/2000/svg" viewBox="0 0 240 234">
  <defs>
    <style>
      .cls-1 {
        fill: #1e3101;
      }

      .cls-2 {
        fill: #99e83f;
      }
    </style>
  </defs>
  <g id="Layer_2" data-name="Layer 2">
    <g id="Surfaces">
      <g id="_3D_Substance_Surface" data-name="3D Substance Surface">
        <g id="Outline_no_shadow" data-name="Outline no shadow">
          <rect class="cls-1" width="240" height="234" rx="42.5"/>
        </g>
      </g>
    </g>
    <g id="Outlined_Mnemonics_Logos" data-name="Outlined Mnemonics &amp; Logos">
      <g id="Md">
        <g>
          <path class="cls-2" d="M30.67143,60.89844a1.07979,1.07979,0,0,1,1.22368-.96606H60.03794a1.52822,1.52822,0,0,1,1.68244,1.1272q1.06806,4.18835,2.6,10.0625,1.52729,5.87879,3.28835,12.96045,1.7569,7.08654,3.59451,14.49,1.83552,7.40735,3.59451,14.40942,1.7562,7.00343,2.9822,12.88013,1.22252,5.87879,1.9886,9.74048h.15307q.60883-3.38123,2.14121-9.01612,1.5266-5.63379,3.51751-12.63843,1.98651-7.00341,4.05327-14.40966,2.06514-7.40333,4.05327-14.65088,1.98582-7.24512,3.74712-13.44361,1.75689-6.19592,2.82959-10.38427a1.33568,1.33568,0,0,1,1.37676-1.1272h27.3779a1.21605,1.21605,0,0,1,1.37676,1.1272l3.67058,102.8789a1.073,1.073,0,0,1-.22915,1.04639,1.31051,1.31051,0,0,1-.99453.40259h-19.8832a1.19508,1.19508,0,0,1-.76492-.24146,1.069,1.069,0,0,1-.30569-.8855q0-8.21118-.07654-17.22705-.07932-9.01464-.22961-18.11255-.15378-9.09375,0-17.4685.151-8.36938.15308-15.45606,0-7.08252.07653-12.3164.07515-5.22986.07654-7.8086H111.735q-.91778,4.0265-2.44737,10.54566-1.53077,6.52038-3.594,14.65088-2.06514,8.13171-4.4355,16.82446-2.37337,8.69421-4.58857,17.22705-2.21892,8.53564-4.28289,15.939-2.06444,7.40735-3.44143,13.041a1.6916,1.6916,0,0,1-1.68245,1.28809H69.97954a1.64451,1.64451,0,0,1-1.83553-1.28809q-1.37628-5.63379-3.13527-13.041-1.76039-7.40332-3.59451-15.45581-1.83483-8.049-3.9002-16.50269-2.06443-8.45252-3.90019-16.34131-1.83483-7.88672-3.28836-14.812Q48.86987,81.02588,47.649,75.71046h-.30615v12.719q0,7.40734-.22915,16.34155-.22962,8.93555-.45877,18.676-.2296,9.743-.5353,20.125-.30823,10.38427-.76492,20.52734c0,.86035-.40866,1.28809-1.22368,1.28809H26.389a1.83144,1.83144,0,0,1-.99407-.24146q-.38407-.24169-.22961-1.20752Z"/>
          <path class="cls-2" d="M181.79639,166.99341a49.88223,49.88223,0,0,1-21.49366-4.50806,34.17219,34.17219,0,0,1-15.05322-13.60449q-5.47558-9.09411-5.47412-22.78149a42.04123,42.04123,0,0,1,5.47412-21.09107,40.1871,40.1871,0,0,1,15.939-15.45605q10.46337-5.796,25.27685-5.7959.80347,0,2.09278.08056,1.28687.08277,3.05908.24146v-31.717c0-.74976.32226-1.127.96631-1.127h20.28564a.854.854,0,0,1,.96631.96582v95.15112q0,2.73962.24121,5.957.24169,3.22228.40283,5.7959a1.66418,1.66418,0,0,1-.96631,1.61011,79.86,79.86,0,0,1-16.26074,4.82983A87.29931,87.29931,0,0,1,181.79639,166.99341Zm9.8208-19.96411V103.07642a15.97072,15.97072,0,0,0-2.65625-.48316,32.10968,32.10968,0,0,0-3.30078-.16089,24.86085,24.86085,0,0,0-11.27,2.57593,22.00524,22.00524,0,0,0-8.45215,7.406q-3.30176,4.83-3.30078,12.719a28.39124,28.39124,0,0,0,1.69043,10.304,19.58772,19.58772,0,0,0,4.5083,7.084,17.16656,17.16656,0,0,0,6.76172,4.02515,26.49038,26.49038,0,0,0,8.2915,1.28784q2.25293,0,4.186-.16089A17.23154,17.23154,0,0,0,191.61719,147.0293Z"/>
        </g>
      </g>
    </g>
  </g>
</svg>
