<?xml version="1.0" encoding="UTF-8"?>
<svg id="Layer_2" data-name="Layer 2" xmlns="http://www.w3.org/2000/svg" viewBox="0 0 990.47 965.07">
  <defs>
    <style>
      .cls-1 {
        fill: #1e3101;
      }

      .cls-2 {
        fill: #99e83f;
      }
    </style>
  </defs>
  <path class="cls-1" d="m175.4,0h639.68c96.85-.03,175.36,78.45,175.4,175.28v614.5c-.02,96.84-78.53,175.33-175.38,175.29H175.4C78.55,965.11.03,886.64,0,789.8V175.28C.03,78.45,78.55-.03,175.4,0"/>
  <path class="cls-2" d="m811.06,403.26v-73.89c0-33.62-19.19-64.3-49.42-79.01l-228.77-111.33c-24.27-11.81-52.63-11.81-76.9,0l-228.77,111.33c-29.81,14.51-48.87,44.54-49.4,77.61,0,.47-.02.94-.02,1.41v103.62c0,22.84,15.4,42.8,37.49,48.6l448.85,117.15c3.68.91,4.15,5.95.71,7.53l-148.57,70.35c-13.79,6.65-29.87,6.65-43.66,0l-130.81-63.1c-17.37-8.38-28.42-25.97-28.42-45.25v-8.06h-135.59v73.41c0,33.73,19.31,64.49,49.69,79.15l228.77,110.35c24.12,11.64,52.23,11.64,76.35,0l228.77-110.35c29.07-14.02,47.99-42.78,49.57-74.78.07-1.45.12-2.9.12-4.37v-100.63c0-22.84-15.4-42.8-37.49-48.6l-451.39-118.5,1.39.32c-.46-.12-.87-.31-1.23-.55-2.42-1.6-2.42-5.48.47-6.92l149.61-73.26c13.88-6.75,30.09-6.75,43.97,0l130.81,63.66c17.29,8.41,28.26,25.95,28.26,45.18v8.96h135.59Z"/>
</svg>